<mxfile host="Electron" agent="Mozilla/5.0 (X11; Linux x86_64) AppleWebKit/537.36 (KHTML, like Gecko) draw.io/26.2.15 Chrome/134.0.6998.205 Electron/35.2.1 Safari/537.36" version="26.2.15">
  <diagram name="Page-1" id="R1MlKiYAvF5OQZ1En9E2">
    <mxGraphModel dx="2066" dy="1235" grid="1" gridSize="10" guides="1" tooltips="1" connect="1" arrows="1" fold="1" page="1" pageScale="1" pageWidth="850" pageHeight="1100" math="0" shadow="0">
      <root>
        <mxCell id="0" />
        <mxCell id="1" parent="0" />
        <mxCell id="hR-YF0Z2aXQY3rr9uQGL-28" value="" style="group" parent="1" vertex="1" connectable="0">
          <mxGeometry x="70" y="30" width="230" height="360" as="geometry" />
        </mxCell>
        <mxCell id="hR-YF0Z2aXQY3rr9uQGL-11" value="" style="ellipse;whiteSpace=wrap;html=1;" parent="hR-YF0Z2aXQY3rr9uQGL-28" vertex="1">
          <mxGeometry width="230" height="360" as="geometry" />
        </mxCell>
        <mxCell id="hR-YF0Z2aXQY3rr9uQGL-12" value="&lt;b&gt;&lt;font style=&quot;font-size: 14px;&quot;&gt;Docker&lt;/font&gt;&lt;/b&gt;" style="text;html=1;align=center;verticalAlign=middle;resizable=0;points=[];autosize=1;strokeColor=none;fillColor=none;" parent="hR-YF0Z2aXQY3rr9uQGL-28" vertex="1">
          <mxGeometry x="80" y="20" width="70" height="30" as="geometry" />
        </mxCell>
        <mxCell id="hR-YF0Z2aXQY3rr9uQGL-27" value="" style="group" parent="1" vertex="1" connectable="0">
          <mxGeometry x="65" y="580" width="235" height="390" as="geometry" />
        </mxCell>
        <mxCell id="hR-YF0Z2aXQY3rr9uQGL-24" value="" style="ellipse;whiteSpace=wrap;html=1;movable=1;resizable=1;rotatable=1;deletable=1;editable=1;locked=0;connectable=1;" parent="hR-YF0Z2aXQY3rr9uQGL-27" vertex="1">
          <mxGeometry width="235" height="390" as="geometry" />
        </mxCell>
        <mxCell id="hR-YF0Z2aXQY3rr9uQGL-25" value="&lt;b&gt;&lt;font style=&quot;font-size: 14px;&quot;&gt;Docker&lt;/font&gt;&lt;/b&gt;" style="text;html=1;align=center;verticalAlign=middle;resizable=1;points=[];autosize=1;strokeColor=none;fillColor=none;movable=1;rotatable=1;deletable=1;editable=1;locked=0;connectable=1;" parent="hR-YF0Z2aXQY3rr9uQGL-27" vertex="1">
          <mxGeometry x="80" y="20" width="70" height="30" as="geometry" />
        </mxCell>
        <mxCell id="hR-YF0Z2aXQY3rr9uQGL-4" value="Product" style="swimlane;fontStyle=0;childLayout=stackLayout;horizontal=1;startSize=30;horizontalStack=0;resizeParent=1;resizeParentMax=0;resizeLast=0;collapsible=1;marginBottom=0;whiteSpace=wrap;html=1;" parent="1" vertex="1">
          <mxGeometry x="140" y="140" width="102.5" height="210" as="geometry">
            <mxRectangle x="640" y="370" width="80" height="30" as="alternateBounds" />
          </mxGeometry>
        </mxCell>
        <mxCell id="hR-YF0Z2aXQY3rr9uQGL-5" value="id" style="text;strokeColor=none;fillColor=none;align=left;verticalAlign=middle;spacingLeft=4;spacingRight=4;overflow=hidden;points=[[0,0.5],[1,0.5]];portConstraint=eastwest;rotatable=0;whiteSpace=wrap;html=1;" parent="hR-YF0Z2aXQY3rr9uQGL-4" vertex="1">
          <mxGeometry y="30" width="102.5" height="30" as="geometry" />
        </mxCell>
        <mxCell id="hR-YF0Z2aXQY3rr9uQGL-6" value="code" style="text;strokeColor=none;fillColor=none;align=left;verticalAlign=middle;spacingLeft=4;spacingRight=4;overflow=hidden;points=[[0,0.5],[1,0.5]];portConstraint=eastwest;rotatable=0;whiteSpace=wrap;html=1;" parent="hR-YF0Z2aXQY3rr9uQGL-4" vertex="1">
          <mxGeometry y="60" width="102.5" height="30" as="geometry" />
        </mxCell>
        <mxCell id="hR-YF0Z2aXQY3rr9uQGL-7" value="name" style="text;strokeColor=none;fillColor=none;align=left;verticalAlign=middle;spacingLeft=4;spacingRight=4;overflow=hidden;points=[[0,0.5],[1,0.5]];portConstraint=eastwest;rotatable=0;whiteSpace=wrap;html=1;" parent="hR-YF0Z2aXQY3rr9uQGL-4" vertex="1">
          <mxGeometry y="90" width="102.5" height="30" as="geometry" />
        </mxCell>
        <mxCell id="hR-YF0Z2aXQY3rr9uQGL-8" value="category" style="text;strokeColor=none;fillColor=none;align=left;verticalAlign=middle;spacingLeft=4;spacingRight=4;overflow=hidden;points=[[0,0.5],[1,0.5]];portConstraint=eastwest;rotatable=0;whiteSpace=wrap;html=1;" parent="hR-YF0Z2aXQY3rr9uQGL-4" vertex="1">
          <mxGeometry y="120" width="102.5" height="30" as="geometry" />
        </mxCell>
        <mxCell id="hR-YF0Z2aXQY3rr9uQGL-9" value="price_per_tonne" style="text;strokeColor=none;fillColor=none;align=left;verticalAlign=middle;spacingLeft=4;spacingRight=4;overflow=hidden;points=[[0,0.5],[1,0.5]];portConstraint=eastwest;rotatable=0;whiteSpace=wrap;html=1;" parent="hR-YF0Z2aXQY3rr9uQGL-4" vertex="1">
          <mxGeometry y="150" width="102.5" height="30" as="geometry" />
        </mxCell>
        <mxCell id="hR-YF0Z2aXQY3rr9uQGL-10" value="stock_tonne" style="text;strokeColor=none;fillColor=none;align=left;verticalAlign=middle;spacingLeft=4;spacingRight=4;overflow=hidden;points=[[0,0.5],[1,0.5]];portConstraint=eastwest;rotatable=0;whiteSpace=wrap;html=1;" parent="hR-YF0Z2aXQY3rr9uQGL-4" vertex="1">
          <mxGeometry y="180" width="102.5" height="30" as="geometry" />
        </mxCell>
        <mxCell id="hR-YF0Z2aXQY3rr9uQGL-13" value="MySQL" style="text;html=1;align=center;verticalAlign=middle;resizable=0;points=[];autosize=1;strokeColor=none;fillColor=none;" parent="1" vertex="1">
          <mxGeometry x="155" y="80" width="60" height="30" as="geometry" />
        </mxCell>
        <mxCell id="hR-YF0Z2aXQY3rr9uQGL-14" value="" style="edgeStyle=none;orthogonalLoop=1;jettySize=auto;html=1;rounded=0;entryX=0.5;entryY=0;entryDx=0;entryDy=0;exitX=0.583;exitY=1;exitDx=0;exitDy=0;exitPerimeter=0;" parent="1" source="hR-YF0Z2aXQY3rr9uQGL-13" target="hR-YF0Z2aXQY3rr9uQGL-4" edge="1">
          <mxGeometry width="100" relative="1" as="geometry">
            <mxPoint x="330" y="120" as="sourcePoint" />
            <mxPoint x="430" y="120" as="targetPoint" />
            <Array as="points" />
          </mxGeometry>
        </mxCell>
        <mxCell id="hR-YF0Z2aXQY3rr9uQGL-15" value="Products Datas" style="swimlane;fontStyle=0;childLayout=stackLayout;horizontal=1;startSize=30;horizontalStack=0;resizeParent=1;resizeParentMax=0;resizeLast=0;collapsible=1;marginBottom=0;whiteSpace=wrap;html=1;" parent="1" vertex="1">
          <mxGeometry x="130" y="710" width="100" height="210" as="geometry" />
        </mxCell>
        <mxCell id="hR-YF0Z2aXQY3rr9uQGL-16" value="product_code" style="text;strokeColor=none;fillColor=none;align=left;verticalAlign=middle;spacingLeft=4;spacingRight=4;overflow=hidden;points=[[0,0.5],[1,0.5]];portConstraint=eastwest;rotatable=0;whiteSpace=wrap;html=1;" parent="hR-YF0Z2aXQY3rr9uQGL-15" vertex="1">
          <mxGeometry y="30" width="100" height="30" as="geometry" />
        </mxCell>
        <mxCell id="hR-YF0Z2aXQY3rr9uQGL-17" value="batch_id" style="text;strokeColor=none;fillColor=none;align=left;verticalAlign=middle;spacingLeft=4;spacingRight=4;overflow=hidden;points=[[0,0.5],[1,0.5]];portConstraint=eastwest;rotatable=0;whiteSpace=wrap;html=1;" parent="hR-YF0Z2aXQY3rr9uQGL-15" vertex="1">
          <mxGeometry y="60" width="100" height="30" as="geometry" />
        </mxCell>
        <mxCell id="hR-YF0Z2aXQY3rr9uQGL-18" value="origin" style="text;strokeColor=none;fillColor=none;align=left;verticalAlign=middle;spacingLeft=4;spacingRight=4;overflow=hidden;points=[[0,0.5],[1,0.5]];portConstraint=eastwest;rotatable=0;whiteSpace=wrap;html=1;" parent="hR-YF0Z2aXQY3rr9uQGL-15" vertex="1">
          <mxGeometry y="90" width="100" height="30" as="geometry" />
        </mxCell>
        <mxCell id="hR-YF0Z2aXQY3rr9uQGL-19" value="composition" style="text;strokeColor=none;fillColor=none;align=left;verticalAlign=middle;spacingLeft=4;spacingRight=4;overflow=hidden;points=[[0,0.5],[1,0.5]];portConstraint=eastwest;rotatable=0;whiteSpace=wrap;html=1;" parent="hR-YF0Z2aXQY3rr9uQGL-15" vertex="1">
          <mxGeometry y="120" width="100" height="30" as="geometry" />
        </mxCell>
        <mxCell id="hR-YF0Z2aXQY3rr9uQGL-20" value="carbon_footprint" style="text;strokeColor=none;fillColor=none;align=left;verticalAlign=middle;spacingLeft=4;spacingRight=4;overflow=hidden;points=[[0,0.5],[1,0.5]];portConstraint=eastwest;rotatable=0;whiteSpace=wrap;html=1;" parent="hR-YF0Z2aXQY3rr9uQGL-15" vertex="1">
          <mxGeometry y="150" width="100" height="30" as="geometry" />
        </mxCell>
        <mxCell id="hR-YF0Z2aXQY3rr9uQGL-21" value="certifications" style="text;strokeColor=none;fillColor=none;align=left;verticalAlign=middle;spacingLeft=4;spacingRight=4;overflow=hidden;points=[[0,0.5],[1,0.5]];portConstraint=eastwest;rotatable=0;whiteSpace=wrap;html=1;" parent="hR-YF0Z2aXQY3rr9uQGL-15" vertex="1">
          <mxGeometry y="180" width="100" height="30" as="geometry" />
        </mxCell>
        <mxCell id="hR-YF0Z2aXQY3rr9uQGL-22" value="Mongo" style="text;html=1;align=center;verticalAlign=middle;resizable=0;points=[];autosize=1;strokeColor=none;fillColor=none;" parent="1" vertex="1">
          <mxGeometry x="150" y="640" width="60" height="30" as="geometry" />
        </mxCell>
        <mxCell id="hR-YF0Z2aXQY3rr9uQGL-23" value="" style="edgeStyle=none;orthogonalLoop=1;jettySize=auto;html=1;rounded=0;exitX=0.517;exitY=1.067;exitDx=0;exitDy=0;exitPerimeter=0;entryX=0.5;entryY=0;entryDx=0;entryDy=0;" parent="1" source="hR-YF0Z2aXQY3rr9uQGL-22" target="hR-YF0Z2aXQY3rr9uQGL-15" edge="1">
          <mxGeometry width="100" relative="1" as="geometry">
            <mxPoint x="320" y="680" as="sourcePoint" />
            <mxPoint x="420" y="680" as="targetPoint" />
            <Array as="points" />
          </mxGeometry>
        </mxCell>
        <mxCell id="hR-YF0Z2aXQY3rr9uQGL-30" value="&lt;b&gt;Product Data Broker&lt;/b&gt;" style="rounded=0;whiteSpace=wrap;html=1;" parent="1" vertex="1">
          <mxGeometry x="710" y="420" width="130" height="60" as="geometry" />
        </mxCell>
        <mxCell id="hR-YF0Z2aXQY3rr9uQGL-31" value="" style="edgeStyle=none;orthogonalLoop=1;jettySize=auto;html=1;rounded=0;exitX=0;exitY=0.25;exitDx=0;exitDy=0;entryX=1.005;entryY=0.081;entryDx=0;entryDy=0;entryPerimeter=0;" parent="1" source="hR-YF0Z2aXQY3rr9uQGL-30" target="hR-YF0Z2aXQY3rr9uQGL-4" edge="1">
          <mxGeometry width="100" relative="1" as="geometry">
            <mxPoint x="400" y="390" as="sourcePoint" />
            <mxPoint x="500" y="390" as="targetPoint" />
            <Array as="points" />
          </mxGeometry>
        </mxCell>
        <mxCell id="hR-YF0Z2aXQY3rr9uQGL-32" value="" style="edgeStyle=none;orthogonalLoop=1;jettySize=auto;html=1;rounded=0;exitX=0;exitY=0.75;exitDx=0;exitDy=0;entryX=1.01;entryY=0.062;entryDx=0;entryDy=0;entryPerimeter=0;" parent="1" source="hR-YF0Z2aXQY3rr9uQGL-30" target="hR-YF0Z2aXQY3rr9uQGL-15" edge="1">
          <mxGeometry width="100" relative="1" as="geometry">
            <mxPoint x="620" y="490" as="sourcePoint" />
            <mxPoint x="500" y="680" as="targetPoint" />
            <Array as="points" />
          </mxGeometry>
        </mxCell>
        <mxCell id="hR-YF0Z2aXQY3rr9uQGL-33" value="code" style="text;html=1;align=center;verticalAlign=middle;resizable=0;points=[];autosize=1;strokeColor=none;fillColor=none;" parent="1" vertex="1">
          <mxGeometry x="430" y="250" width="50" height="30" as="geometry" />
        </mxCell>
        <mxCell id="hR-YF0Z2aXQY3rr9uQGL-34" value="" style="edgeStyle=none;orthogonalLoop=1;jettySize=auto;html=1;rounded=0;exitX=0.976;exitY=0.067;exitDx=0;exitDy=0;entryX=0;entryY=0.5;entryDx=0;entryDy=0;exitPerimeter=0;" parent="1" source="hR-YF0Z2aXQY3rr9uQGL-5" target="hR-YF0Z2aXQY3rr9uQGL-30" edge="1">
          <mxGeometry width="100" relative="1" as="geometry">
            <mxPoint x="350" y="490" as="sourcePoint" />
            <mxPoint x="450" y="490" as="targetPoint" />
            <Array as="points" />
          </mxGeometry>
        </mxCell>
        <mxCell id="hR-YF0Z2aXQY3rr9uQGL-35" value="code,&lt;div&gt;name,&lt;/div&gt;&lt;div&gt;category,&lt;/div&gt;&lt;div&gt;price_per_tonne&lt;/div&gt;&lt;div&gt;stock_tonne&lt;/div&gt;" style="text;html=1;align=center;verticalAlign=middle;resizable=0;points=[];autosize=1;strokeColor=none;fillColor=none;" parent="1" vertex="1">
          <mxGeometry x="360" y="280" width="110" height="90" as="geometry" />
        </mxCell>
        <mxCell id="hR-YF0Z2aXQY3rr9uQGL-36" value="code" style="text;html=1;align=center;verticalAlign=middle;resizable=0;points=[];autosize=1;strokeColor=none;fillColor=none;" parent="1" vertex="1">
          <mxGeometry x="430" y="570" width="50" height="30" as="geometry" />
        </mxCell>
        <mxCell id="hR-YF0Z2aXQY3rr9uQGL-37" value="batch_id,&lt;div&gt;origin,&lt;/div&gt;&lt;div&gt;composition,&lt;/div&gt;&lt;div&gt;carbon_footprint,&lt;/div&gt;&lt;div&gt;certifications&lt;/div&gt;" style="text;html=1;align=center;verticalAlign=middle;resizable=0;points=[];autosize=1;strokeColor=none;fillColor=none;" parent="1" vertex="1">
          <mxGeometry x="440" y="600" width="110" height="90" as="geometry" />
        </mxCell>
        <mxCell id="hR-YF0Z2aXQY3rr9uQGL-38" value="" style="edgeStyle=none;orthogonalLoop=1;jettySize=auto;html=1;rounded=0;exitX=0.99;exitY=0;exitDx=0;exitDy=0;exitPerimeter=0;entryX=0;entryY=1;entryDx=0;entryDy=0;" parent="1" source="hR-YF0Z2aXQY3rr9uQGL-16" target="hR-YF0Z2aXQY3rr9uQGL-30" edge="1">
          <mxGeometry width="100" relative="1" as="geometry">
            <mxPoint x="300" y="740" as="sourcePoint" />
            <mxPoint x="400" y="740" as="targetPoint" />
            <Array as="points" />
          </mxGeometry>
        </mxCell>
        <mxCell id="hR-YF0Z2aXQY3rr9uQGL-39" value="&lt;b&gt;&lt;font style=&quot;font-size: 14px;&quot;&gt;User&lt;/font&gt;&lt;/b&gt;" style="rounded=1;whiteSpace=wrap;html=1;" parent="1" vertex="1">
          <mxGeometry x="1240" y="420" width="120" height="60" as="geometry" />
        </mxCell>
        <mxCell id="hR-YF0Z2aXQY3rr9uQGL-40" value="" style="shape=flexArrow;endArrow=classic;html=1;rounded=0;exitX=0;exitY=0.25;exitDx=0;exitDy=0;entryX=1;entryY=0.25;entryDx=0;entryDy=0;" parent="1" source="hR-YF0Z2aXQY3rr9uQGL-39" target="hR-YF0Z2aXQY3rr9uQGL-30" edge="1">
          <mxGeometry width="50" height="50" relative="1" as="geometry">
            <mxPoint x="1130" y="410" as="sourcePoint" />
            <mxPoint x="1180" y="360" as="targetPoint" />
          </mxGeometry>
        </mxCell>
        <mxCell id="hR-YF0Z2aXQY3rr9uQGL-41" value="REST API" style="edgeLabel;html=1;align=center;verticalAlign=middle;resizable=0;points=[];" parent="hR-YF0Z2aXQY3rr9uQGL-40" vertex="1" connectable="0">
          <mxGeometry x="0.23" y="2" relative="1" as="geometry">
            <mxPoint x="36" y="-2" as="offset" />
          </mxGeometry>
        </mxCell>
        <mxCell id="hR-YF0Z2aXQY3rr9uQGL-43" value="" style="shape=flexArrow;endArrow=classic;html=1;rounded=0;exitX=1;exitY=0.75;exitDx=0;exitDy=0;entryX=0;entryY=0.75;entryDx=0;entryDy=0;" parent="1" source="hR-YF0Z2aXQY3rr9uQGL-30" target="hR-YF0Z2aXQY3rr9uQGL-39" edge="1">
          <mxGeometry width="50" height="50" relative="1" as="geometry">
            <mxPoint x="1250" y="480" as="sourcePoint" />
            <mxPoint x="1200" y="460" as="targetPoint" />
          </mxGeometry>
        </mxCell>
        <mxCell id="hR-YF0Z2aXQY3rr9uQGL-44" value="REST API" style="edgeLabel;html=1;align=center;verticalAlign=middle;resizable=0;points=[];" parent="hR-YF0Z2aXQY3rr9uQGL-43" vertex="1" connectable="0">
          <mxGeometry x="0.23" y="2" relative="1" as="geometry">
            <mxPoint x="-56" y="2" as="offset" />
          </mxGeometry>
        </mxCell>
        <mxCell id="hR-YF0Z2aXQY3rr9uQGL-45" value="code" style="text;html=1;align=center;verticalAlign=middle;resizable=0;points=[];autosize=1;strokeColor=none;fillColor=none;" parent="1" vertex="1">
          <mxGeometry x="895" y="408" width="50" height="30" as="geometry" />
        </mxCell>
        <mxCell id="hR-YF0Z2aXQY3rr9uQGL-47" value="&lt;span style=&quot;text-wrap-mode: nowrap;&quot;&gt;Digital Product&amp;nbsp;&lt;/span&gt;&lt;div&gt;&lt;span style=&quot;text-wrap-mode: nowrap;&quot;&gt;Passport (DPP)&lt;/span&gt;&lt;/div&gt;" style="ellipse;whiteSpace=wrap;html=1;" parent="1" vertex="1">
          <mxGeometry x="900" y="490" width="120" height="80" as="geometry" />
        </mxCell>
        <mxCell id="hR-YF0Z2aXQY3rr9uQGL-48" value="" style="endArrow=none;html=1;rounded=0;exitX=0.5;exitY=0;exitDx=0;exitDy=0;" parent="1" source="hR-YF0Z2aXQY3rr9uQGL-47" edge="1">
          <mxGeometry width="50" height="50" relative="1" as="geometry">
            <mxPoint x="860" y="620" as="sourcePoint" />
            <mxPoint x="960" y="470" as="targetPoint" />
          </mxGeometry>
        </mxCell>
      </root>
    </mxGraphModel>
  </diagram>
</mxfile>
